<mxfile host="app.diagrams.net" modified="2021-06-13T05:17:54.084Z" agent="5.0 (Windows NT 10.0; Win64; x64) AppleWebKit/537.36 (KHTML, like Gecko) Chrome/88.0.4324.182 Safari/537.36" etag="Eg1A9DqkPyMETzAnzG1a" version="14.7.7" type="github">
  <diagram id="IYX75Nc2gbsvrrbWuUQD" name="Page-1">
    <mxGraphModel dx="1048" dy="688" grid="1" gridSize="10" guides="1" tooltips="1" connect="1" arrows="1" fold="1" page="1" pageScale="1" pageWidth="3300" pageHeight="4681" math="0" shadow="0">
      <root>
        <mxCell id="0" />
        <mxCell id="1" parent="0" />
        <mxCell id="R6sDnFTntLYkthl34TSU-63" style="edgeStyle=orthogonalEdgeStyle;rounded=0;orthogonalLoop=1;jettySize=auto;html=1;entryX=0.5;entryY=0;entryDx=0;entryDy=0;" parent="1" source="R6sDnFTntLYkthl34TSU-2" target="R6sDnFTntLYkthl34TSU-6" edge="1">
          <mxGeometry relative="1" as="geometry" />
        </mxCell>
        <mxCell id="R6sDnFTntLYkthl34TSU-2" value="FUNCTION select_time(title)" style="shape=process;whiteSpace=wrap;html=1;backgroundOutline=1;" parent="1" vertex="1">
          <mxGeometry x="520" y="170" width="290" height="60" as="geometry" />
        </mxCell>
        <mxCell id="R6sDnFTntLYkthl34TSU-5" value="" style="edgeStyle=orthogonalEdgeStyle;rounded=0;orthogonalLoop=1;jettySize=auto;html=1;" parent="1" source="R6sDnFTntLYkthl34TSU-6" target="R6sDnFTntLYkthl34TSU-8" edge="1">
          <mxGeometry relative="1" as="geometry" />
        </mxCell>
        <mxCell id="R6sDnFTntLYkthl34TSU-6" value="i = 0" style="rounded=1;whiteSpace=wrap;html=1;" parent="1" vertex="1">
          <mxGeometry x="550" y="320" width="230" height="40" as="geometry" />
        </mxCell>
        <mxCell id="R6sDnFTntLYkthl34TSU-7" value="" style="edgeStyle=orthogonalEdgeStyle;rounded=0;orthogonalLoop=1;jettySize=auto;html=1;" parent="1" source="R6sDnFTntLYkthl34TSU-8" target="R6sDnFTntLYkthl34TSU-10" edge="1">
          <mxGeometry relative="1" as="geometry" />
        </mxCell>
        <mxCell id="R6sDnFTntLYkthl34TSU-8" value="PRINT(title)" style="rounded=1;whiteSpace=wrap;html=1;" parent="1" vertex="1">
          <mxGeometry x="550" y="410" width="230" height="40" as="geometry" />
        </mxCell>
        <mxCell id="R6sDnFTntLYkthl34TSU-9" value="" style="edgeStyle=orthogonalEdgeStyle;rounded=0;orthogonalLoop=1;jettySize=auto;html=1;" parent="1" source="R6sDnFTntLYkthl34TSU-10" target="R6sDnFTntLYkthl34TSU-12" edge="1">
          <mxGeometry relative="1" as="geometry" />
        </mxCell>
        <mxCell id="R6sDnFTntLYkthl34TSU-10" value="PRINT(&quot;Please enter time IN HH:MM&quot;)" style="rounded=1;whiteSpace=wrap;html=1;" parent="1" vertex="1">
          <mxGeometry x="550" y="500" width="230" height="40" as="geometry" />
        </mxCell>
        <mxCell id="R6sDnFTntLYkthl34TSU-11" value="" style="edgeStyle=orthogonalEdgeStyle;rounded=0;orthogonalLoop=1;jettySize=auto;html=1;" parent="1" source="R6sDnFTntLYkthl34TSU-12" target="R6sDnFTntLYkthl34TSU-14" edge="1">
          <mxGeometry relative="1" as="geometry" />
        </mxCell>
        <mxCell id="R6sDnFTntLYkthl34TSU-12" value="PRINT(&quot;Time: &quot;)" style="rounded=1;whiteSpace=wrap;html=1;" parent="1" vertex="1">
          <mxGeometry x="550" y="600" width="230" height="40" as="geometry" />
        </mxCell>
        <mxCell id="TKbcjzNXNICAfCICzxgK-3" style="edgeStyle=orthogonalEdgeStyle;rounded=0;orthogonalLoop=1;jettySize=auto;html=1;entryX=0.5;entryY=0;entryDx=0;entryDy=0;" edge="1" parent="1" source="R6sDnFTntLYkthl34TSU-14" target="R6sDnFTntLYkthl34TSU-17">
          <mxGeometry relative="1" as="geometry" />
        </mxCell>
        <mxCell id="R6sDnFTntLYkthl34TSU-14" value="READ temp" style="shape=parallelogram;perimeter=parallelogramPerimeter;whiteSpace=wrap;html=1;fixedSize=1;" parent="1" vertex="1">
          <mxGeometry x="550" y="670" width="229" height="50" as="geometry" />
        </mxCell>
        <mxCell id="R6sDnFTntLYkthl34TSU-15" value="" style="edgeStyle=orthogonalEdgeStyle;rounded=0;orthogonalLoop=1;jettySize=auto;html=1;" parent="1" source="R6sDnFTntLYkthl34TSU-17" target="R6sDnFTntLYkthl34TSU-29" edge="1">
          <mxGeometry relative="1" as="geometry" />
        </mxCell>
        <mxCell id="R6sDnFTntLYkthl34TSU-16" value="" style="edgeStyle=orthogonalEdgeStyle;rounded=0;orthogonalLoop=1;jettySize=auto;html=1;" parent="1" source="R6sDnFTntLYkthl34TSU-17" target="R6sDnFTntLYkthl34TSU-27" edge="1">
          <mxGeometry relative="1" as="geometry" />
        </mxCell>
        <mxCell id="R6sDnFTntLYkthl34TSU-17" value="Value Error" style="rhombus;whiteSpace=wrap;html=1;" parent="1" vertex="1">
          <mxGeometry x="609" y="820" width="110" height="100" as="geometry" />
        </mxCell>
        <mxCell id="R6sDnFTntLYkthl34TSU-18" value="" style="edgeStyle=orthogonalEdgeStyle;rounded=0;orthogonalLoop=1;jettySize=auto;html=1;" parent="1" source="R6sDnFTntLYkthl34TSU-19" target="R6sDnFTntLYkthl34TSU-31" edge="1">
          <mxGeometry relative="1" as="geometry" />
        </mxCell>
        <mxCell id="R6sDnFTntLYkthl34TSU-19" value="PRINT(&quot;Error! Incorrect time format.&quot;)" style="rounded=1;whiteSpace=wrap;html=1;" parent="1" vertex="1">
          <mxGeometry x="592.5" y="1040" width="145" height="40" as="geometry" />
        </mxCell>
        <mxCell id="R6sDnFTntLYkthl34TSU-22" value="" style="edgeStyle=orthogonalEdgeStyle;rounded=0;orthogonalLoop=1;jettySize=auto;html=1;" parent="1" source="R6sDnFTntLYkthl34TSU-23" target="R6sDnFTntLYkthl34TSU-55" edge="1">
          <mxGeometry relative="1" as="geometry" />
        </mxCell>
        <mxCell id="R6sDnFTntLYkthl34TSU-23" value="BREAK" style="rounded=1;whiteSpace=wrap;html=1;" parent="1" vertex="1">
          <mxGeometry x="872.5" y="1040" width="145" height="40" as="geometry" />
        </mxCell>
        <mxCell id="R6sDnFTntLYkthl34TSU-24" value="True" style="text;html=1;align=center;verticalAlign=middle;resizable=0;points=[];autosize=1;strokeColor=none;" parent="1" vertex="1">
          <mxGeometry x="663" y="920" width="40" height="20" as="geometry" />
        </mxCell>
        <mxCell id="R6sDnFTntLYkthl34TSU-25" value="False" style="text;html=1;align=center;verticalAlign=middle;resizable=0;points=[];autosize=1;strokeColor=none;" parent="1" vertex="1">
          <mxGeometry x="720" y="850" width="40" height="20" as="geometry" />
        </mxCell>
        <mxCell id="TKbcjzNXNICAfCICzxgK-2" style="edgeStyle=orthogonalEdgeStyle;rounded=0;orthogonalLoop=1;jettySize=auto;html=1;entryX=0.5;entryY=0;entryDx=0;entryDy=0;" edge="1" parent="1" source="R6sDnFTntLYkthl34TSU-27" target="TKbcjzNXNICAfCICzxgK-1">
          <mxGeometry relative="1" as="geometry" />
        </mxCell>
        <mxCell id="R6sDnFTntLYkthl34TSU-27" value="TRY" style="rounded=1;whiteSpace=wrap;html=1;" parent="1" vertex="1">
          <mxGeometry x="872.5" y="850" width="145" height="40" as="geometry" />
        </mxCell>
        <mxCell id="R6sDnFTntLYkthl34TSU-28" value="" style="edgeStyle=orthogonalEdgeStyle;rounded=0;orthogonalLoop=1;jettySize=auto;html=1;" parent="1" source="R6sDnFTntLYkthl34TSU-29" target="R6sDnFTntLYkthl34TSU-19" edge="1">
          <mxGeometry relative="1" as="geometry" />
        </mxCell>
        <mxCell id="R6sDnFTntLYkthl34TSU-29" value="EXCEPT" style="rounded=1;whiteSpace=wrap;html=1;" parent="1" vertex="1">
          <mxGeometry x="592" y="960" width="145" height="40" as="geometry" />
        </mxCell>
        <mxCell id="R6sDnFTntLYkthl34TSU-30" value="" style="edgeStyle=orthogonalEdgeStyle;rounded=0;orthogonalLoop=1;jettySize=auto;html=1;" parent="1" source="R6sDnFTntLYkthl34TSU-31" target="R6sDnFTntLYkthl34TSU-34" edge="1">
          <mxGeometry relative="1" as="geometry" />
        </mxCell>
        <mxCell id="R6sDnFTntLYkthl34TSU-31" value="i = i + 1" style="rounded=1;whiteSpace=wrap;html=1;" parent="1" vertex="1">
          <mxGeometry x="592.5" y="1120" width="145" height="40" as="geometry" />
        </mxCell>
        <mxCell id="R6sDnFTntLYkthl34TSU-32" value="" style="edgeStyle=orthogonalEdgeStyle;rounded=0;orthogonalLoop=1;jettySize=auto;html=1;" parent="1" source="R6sDnFTntLYkthl34TSU-34" target="R6sDnFTntLYkthl34TSU-36" edge="1">
          <mxGeometry relative="1" as="geometry" />
        </mxCell>
        <mxCell id="R6sDnFTntLYkthl34TSU-33" style="edgeStyle=orthogonalEdgeStyle;rounded=0;orthogonalLoop=1;jettySize=auto;html=1;entryX=0;entryY=0.5;entryDx=0;entryDy=0;" parent="1" source="R6sDnFTntLYkthl34TSU-34" target="R6sDnFTntLYkthl34TSU-8" edge="1">
          <mxGeometry relative="1" as="geometry">
            <Array as="points">
              <mxPoint x="470" y="1260" />
              <mxPoint x="470" y="430" />
            </Array>
          </mxGeometry>
        </mxCell>
        <mxCell id="R6sDnFTntLYkthl34TSU-34" value="i &gt; 4" style="rhombus;whiteSpace=wrap;html=1;" parent="1" vertex="1">
          <mxGeometry x="610" y="1210" width="110" height="100" as="geometry" />
        </mxCell>
        <mxCell id="R6sDnFTntLYkthl34TSU-35" value="" style="edgeStyle=orthogonalEdgeStyle;rounded=0;orthogonalLoop=1;jettySize=auto;html=1;" parent="1" source="R6sDnFTntLYkthl34TSU-36" target="R6sDnFTntLYkthl34TSU-38" edge="1">
          <mxGeometry relative="1" as="geometry" />
        </mxCell>
        <mxCell id="R6sDnFTntLYkthl34TSU-36" value="DECLARE menu = [&quot;Continue&quot;, &quot;Return&quot;]" style="rounded=1;whiteSpace=wrap;html=1;" parent="1" vertex="1">
          <mxGeometry x="593" y="1350" width="145" height="40" as="geometry" />
        </mxCell>
        <mxCell id="R6sDnFTntLYkthl34TSU-37" value="" style="edgeStyle=orthogonalEdgeStyle;rounded=0;orthogonalLoop=1;jettySize=auto;html=1;" parent="1" source="R6sDnFTntLYkthl34TSU-38" target="R6sDnFTntLYkthl34TSU-40" edge="1">
          <mxGeometry relative="1" as="geometry" />
        </mxCell>
        <mxCell id="R6sDnFTntLYkthl34TSU-38" value="default.general_menu(menu)" style="shape=process;whiteSpace=wrap;html=1;backgroundOutline=1;" parent="1" vertex="1">
          <mxGeometry x="558.5" y="1440" width="214" height="40" as="geometry" />
        </mxCell>
        <mxCell id="R6sDnFTntLYkthl34TSU-39" value="" style="edgeStyle=orthogonalEdgeStyle;rounded=0;orthogonalLoop=1;jettySize=auto;html=1;" parent="1" source="R6sDnFTntLYkthl34TSU-40" target="R6sDnFTntLYkthl34TSU-42" edge="1">
          <mxGeometry relative="1" as="geometry" />
        </mxCell>
        <mxCell id="R6sDnFTntLYkthl34TSU-40" value="PRINT(&quot;Please Select: &quot;)" style="rounded=1;whiteSpace=wrap;html=1;" parent="1" vertex="1">
          <mxGeometry x="550" y="1530" width="230" height="40" as="geometry" />
        </mxCell>
        <mxCell id="R6sDnFTntLYkthl34TSU-41" value="" style="edgeStyle=orthogonalEdgeStyle;rounded=0;orthogonalLoop=1;jettySize=auto;html=1;" parent="1" source="R6sDnFTntLYkthl34TSU-42" target="R6sDnFTntLYkthl34TSU-45" edge="1">
          <mxGeometry relative="1" as="geometry" />
        </mxCell>
        <mxCell id="R6sDnFTntLYkthl34TSU-42" value="READ choice" style="shape=parallelogram;perimeter=parallelogramPerimeter;whiteSpace=wrap;html=1;fixedSize=1;" parent="1" vertex="1">
          <mxGeometry x="550" y="1620" width="229" height="40" as="geometry" />
        </mxCell>
        <mxCell id="R6sDnFTntLYkthl34TSU-43" value="" style="edgeStyle=orthogonalEdgeStyle;rounded=0;orthogonalLoop=1;jettySize=auto;html=1;" parent="1" source="R6sDnFTntLYkthl34TSU-45" target="R6sDnFTntLYkthl34TSU-47" edge="1">
          <mxGeometry relative="1" as="geometry" />
        </mxCell>
        <mxCell id="R6sDnFTntLYkthl34TSU-44" style="edgeStyle=orthogonalEdgeStyle;rounded=0;orthogonalLoop=1;jettySize=auto;html=1;entryX=1;entryY=0.5;entryDx=0;entryDy=0;" parent="1" source="R6sDnFTntLYkthl34TSU-45" target="R6sDnFTntLYkthl34TSU-38" edge="1">
          <mxGeometry relative="1" as="geometry">
            <Array as="points">
              <mxPoint x="840" y="1770" />
              <mxPoint x="840" y="1460" />
            </Array>
          </mxGeometry>
        </mxCell>
        <mxCell id="R6sDnFTntLYkthl34TSU-45" value="choice == &#39;1&#39; OR choice == &#39;2&#39;" style="rhombus;whiteSpace=wrap;html=1;" parent="1" vertex="1">
          <mxGeometry x="554.5" y="1720" width="219" height="100" as="geometry" />
        </mxCell>
        <mxCell id="R6sDnFTntLYkthl34TSU-46" style="edgeStyle=orthogonalEdgeStyle;rounded=0;orthogonalLoop=1;jettySize=auto;html=1;entryX=0.5;entryY=0;entryDx=0;entryDy=0;" parent="1" source="R6sDnFTntLYkthl34TSU-47" target="R6sDnFTntLYkthl34TSU-50" edge="1">
          <mxGeometry relative="1" as="geometry" />
        </mxCell>
        <mxCell id="R6sDnFTntLYkthl34TSU-47" value="BREAK" style="rounded=1;whiteSpace=wrap;html=1;" parent="1" vertex="1">
          <mxGeometry x="592" y="1880" width="145" height="40" as="geometry" />
        </mxCell>
        <mxCell id="R6sDnFTntLYkthl34TSU-48" style="edgeStyle=orthogonalEdgeStyle;rounded=0;orthogonalLoop=1;jettySize=auto;html=1;entryX=0;entryY=0.5;entryDx=0;entryDy=0;" parent="1" source="R6sDnFTntLYkthl34TSU-50" target="R6sDnFTntLYkthl34TSU-52" edge="1">
          <mxGeometry relative="1" as="geometry" />
        </mxCell>
        <mxCell id="R6sDnFTntLYkthl34TSU-49" value="" style="edgeStyle=orthogonalEdgeStyle;rounded=0;orthogonalLoop=1;jettySize=auto;html=1;" parent="1" source="R6sDnFTntLYkthl34TSU-50" target="R6sDnFTntLYkthl34TSU-53" edge="1">
          <mxGeometry relative="1" as="geometry" />
        </mxCell>
        <mxCell id="R6sDnFTntLYkthl34TSU-50" value="choice == &#39;1&#39;" style="rhombus;whiteSpace=wrap;html=1;" parent="1" vertex="1">
          <mxGeometry x="460" y="1960" width="110" height="100" as="geometry" />
        </mxCell>
        <mxCell id="R6sDnFTntLYkthl34TSU-51" value="" style="edgeStyle=orthogonalEdgeStyle;rounded=0;orthogonalLoop=1;jettySize=auto;html=1;" parent="1" source="R6sDnFTntLYkthl34TSU-52" target="R6sDnFTntLYkthl34TSU-54" edge="1">
          <mxGeometry relative="1" as="geometry" />
        </mxCell>
        <mxCell id="R6sDnFTntLYkthl34TSU-52" value="choice == &#39;2&#39;" style="rhombus;whiteSpace=wrap;html=1;" parent="1" vertex="1">
          <mxGeometry x="720" y="1960" width="110" height="100" as="geometry" />
        </mxCell>
        <mxCell id="R6sDnFTntLYkthl34TSU-53" value="RETURN 1" style="ellipse;whiteSpace=wrap;html=1;" parent="1" vertex="1">
          <mxGeometry x="470" y="2120" width="90" height="80" as="geometry" />
        </mxCell>
        <mxCell id="R6sDnFTntLYkthl34TSU-54" value="RETURN 2" style="ellipse;whiteSpace=wrap;html=1;" parent="1" vertex="1">
          <mxGeometry x="730" y="2120" width="90" height="80" as="geometry" />
        </mxCell>
        <mxCell id="R6sDnFTntLYkthl34TSU-55" value="RETURN&lt;br&gt;TEMP" style="ellipse;whiteSpace=wrap;html=1;" parent="1" vertex="1">
          <mxGeometry x="900" y="1130" width="90" height="80" as="geometry" />
        </mxCell>
        <mxCell id="R6sDnFTntLYkthl34TSU-56" value="False" style="text;html=1;align=center;verticalAlign=middle;resizable=0;points=[];autosize=1;strokeColor=none;" parent="1" vertex="1">
          <mxGeometry x="570" y="1240" width="40" height="20" as="geometry" />
        </mxCell>
        <mxCell id="R6sDnFTntLYkthl34TSU-57" value="True" style="text;html=1;align=center;verticalAlign=middle;resizable=0;points=[];autosize=1;strokeColor=none;" parent="1" vertex="1">
          <mxGeometry x="663" y="1313" width="40" height="20" as="geometry" />
        </mxCell>
        <mxCell id="R6sDnFTntLYkthl34TSU-58" value="False" style="text;html=1;align=center;verticalAlign=middle;resizable=0;points=[];autosize=1;strokeColor=none;" parent="1" vertex="1">
          <mxGeometry x="774" y="1750" width="40" height="20" as="geometry" />
        </mxCell>
        <mxCell id="R6sDnFTntLYkthl34TSU-59" value="False" style="text;html=1;align=center;verticalAlign=middle;resizable=0;points=[];autosize=1;strokeColor=none;" parent="1" vertex="1">
          <mxGeometry x="570" y="1990" width="40" height="20" as="geometry" />
        </mxCell>
        <mxCell id="R6sDnFTntLYkthl34TSU-60" value="True" style="text;html=1;align=center;verticalAlign=middle;resizable=0;points=[];autosize=1;strokeColor=none;" parent="1" vertex="1">
          <mxGeometry x="670" y="1820" width="40" height="20" as="geometry" />
        </mxCell>
        <mxCell id="R6sDnFTntLYkthl34TSU-61" value="True" style="text;html=1;align=center;verticalAlign=middle;resizable=0;points=[];autosize=1;strokeColor=none;" parent="1" vertex="1">
          <mxGeometry x="514.5" y="2060" width="40" height="20" as="geometry" />
        </mxCell>
        <mxCell id="R6sDnFTntLYkthl34TSU-62" value="True" style="text;html=1;align=center;verticalAlign=middle;resizable=0;points=[];autosize=1;strokeColor=none;" parent="1" vertex="1">
          <mxGeometry x="773.5" y="2060" width="40" height="20" as="geometry" />
        </mxCell>
        <mxCell id="TKbcjzNXNICAfCICzxgK-4" value="" style="edgeStyle=orthogonalEdgeStyle;rounded=0;orthogonalLoop=1;jettySize=auto;html=1;" edge="1" parent="1" source="TKbcjzNXNICAfCICzxgK-1" target="R6sDnFTntLYkthl34TSU-23">
          <mxGeometry relative="1" as="geometry" />
        </mxCell>
        <mxCell id="TKbcjzNXNICAfCICzxgK-1" value="datetime.datetime.strptime(temp, &quot;%H:%M&quot;)" style="rounded=1;whiteSpace=wrap;html=1;" vertex="1" parent="1">
          <mxGeometry x="830" y="960" width="230" height="40" as="geometry" />
        </mxCell>
      </root>
    </mxGraphModel>
  </diagram>
</mxfile>
